PathFileType	3	(X/Y/Z)	D:\minhoCalibration\240510\subject3_KPNP\preferred\preferred14.trc
DataRate	CameraRate	NumFrames	NumMarkers	Units	OrigDataRate	OrigDataStartFrame	OrigNumFrames
200.0	200.0	15	10	mm	200.0	294	142	
Frame#	Time	Left_Ankle_Outer1			Left_Ankle_Inner1			Left_Knee_Outer1			Left_Knee_Inner1			Left_Wrist1			Right_Wrist1			Right_Knee_Inner1			Right_Knee_Outer1			Right_Ankle_Inner1			Right_Ankle_Outer1			
		X1	Y1	Z1	X2	Y2	Z2	X3	Y3	Z3	X4	Y4	Z4	X5	Y5	Z5	X6	Y6	Z6	X7	Y7	Z7	X8	Y8	Z8	X9	Y9	Z9	X10	Y10	Z10	
294	1.46	-325.71423	108.91354	-500.47653	-381.05212	124.77318	-493.89935	-218.43257	529.01074	-396.35327	-305.24084	534.11737	-345.16595	-191.39246	916.29919	-574.17426	-503.48575	1064.8083	-427.39798	-346.36053	900.53888	-74.114006	-440.4007	958.48871	-79.457443	-369.12076	717.90277	309.37885	-466.66354	759.84576	312.74982
295	1.465	-324.78177	107.62262	-501.5546	-380.6261	123.26501	-495.41528	-219.85057	528.00861	-396.7923	-307.6777	532.93066	-346.86526	-189.72662	917.23889	-571.64008	-506.93726	1059.7305	-429.07648	-348.03842	894.09375	-75.195847	-442.91443	950.13629	-80.31118	-376.06534	694.57666	299.80133	-474.74805	733.62427	302.91138
296	1.47	-324.45676	106.30848	-502.33429	-380.34839	121.84051	-496.78726	-220.92126	526.98419	-397.37134	-309.9473	531.55463	-349.13431	-187.93057	917.99072	-569.32349	-509.82803	1054.3536	-431.12466	-349.85806	887.27899	-75.949875	-446.0596	941.58191	-80.932755	-383.16818	671.11902	289.4726	-482.88721	707.35864	291.79465
297	1.475	-324.76392	104.63081	-502.69168	-380.12741	120.24373	-498.04309	-221.7952	525.93048	-397.99359	-312.13184	530.14532	-351.53424	-186.44592	918.19141	-567.22418	-512.29047	1049.5376	-433.06284	-351.82614	879.96143	-76.501167	-449.03296	932.60852	-81.989777	-390.5202	647.57379	278.27524	-491.12381	681.04694	279.37277
298	1.48	-324.36218	103.51055	-503.66141	-380.18701	118.78673	-499.29169	-223.38109	524.89191	-398.32016	-315.03714	528.77045	-353.82971	-185.30989	918.09058	-565.18146	-514.74481	1044.9226	-435.25113	-354.0101	872.02399	-77.086342	-452.19684	923.34393	-83.316299	-397.96313	623.97638	266.15414	-499.267	654.90887	265.79956
299	1.485	-324.41336	102.39131	-504.42041	-380.38318	117.32336	-500.46194	-224.6664	523.77484	-398.68893	-316.70969	526.87933	-356.1405	-183.5732	917.87683	-563.72534	-516.54987	1040.4374	-437.05423	-356.7562	863.48737	-77.938217	-455.41068	913.53381	-85.082146	-405.88635	599.75269	253.68121	-508.24869	629.37006	250.8772
300	1.49	-325.18881	100.81718	-504.73923	-380.80551	115.88845	-501.51025	-226.09196	522.6911	-399.02979	-319.32159	525.66815	-358.39478	-182.61574	917.30957	-561.89032	-518.05884	1035.9592	-438.62845	-358.99689	854.25031	-78.906799	-459.33691	903.78857	-86.741531	-415.34189	576.91949	239.70056	-516.78839	603.79108	235.30341
301	1.495	-325.30634	99.622032	-505.58502	-381.36896	114.3408	-502.60764	-227.27565	521.76233	-399.25635	-321.67126	524.50122	-360.40643	-181.79468	916.5365	-560.35229	-519.49652	1032.1482	-440.24023	-361.88214	844.383	-80.41275	-463.06689	893.42389	-88.81292	-422.98062	552.63898	225.16307	-525.43146	578.63422	218.05756
302	1.5	-325.86856	98.271172	-506.25717	-381.96207	112.80341	-503.56744	-229.1978	520.59595	-399.60114	-324.06085	523.28595	-362.3067	-180.86942	915.6861	-558.99524	-520.46625	1028.4086	-441.59875	-364.12	834.21527	-82.32695	-466.88239	882.97211	-90.968201	-431.36057	529.01611	208.78871	-534.19269	554.80322	200.12029
303	1.505	-326.57108	96.790001	-506.85864	-382.60141	111.08126	-504.63956	-230.99429	519.5246	-399.84534	-326.36362	522.17261	-364.18518	-180.04063	914.70673	-557.75183	-521.19147	1024.5923	-442.88757	-366.89075	823.6756	-84.491127	-470.43567	871.86444	-93.444839	-439.3111	505.4332	191.45154	-541.02039	529.86328	180.79431
304	1.51	-327.20645	95.492088	-507.616	-383.37308	109.51665	-505.66675	-232.91937	518.5351	-400.21152	-328.86288	520.87634	-366.17288	-179.61255	913.64032	-556.56671	-522.0592	1021.5084	-444.35141	-370.08578	812.80627	-86.855423	-474.01471	860.75201	-95.92305	-448.08585	482.14041	172.69325	-549.01227	507.21146	160.90906
305	1.515	-328.10693	93.925819	-508.1944	-384.24136	107.77127	-506.67352	-235.12833	517.44281	-400.79129	-331.4086	520.21759	-367.91864	-179.3288	912.49011	-555.35828	-522.60913	1018.1676	-445.96808	-373.05237	801.81219	-89.695099	-477.4454	849.58557	-98.072075	-455.98511	459.7171	153.56003	-556.37177	484.06183	139.4808
306	1.52	-328.70782	92.66394	-508.9758	-384.96704	105.99133	-507.65805	-236.7486	516.62885	-401.0419	-333.51025	519.26196	-370.06189	-179.21165	911.31409	-554.41614	-523.22906	1015.2119	-447.59976	-375.73724	790.64233	-93.275398	-480.67444	837.59937	-101.26672	-463.89072	437.42206	133.37114	-563.92133	462.34662	117.64687
307	1.525	-329.81436	91.149254	-509.49539	-385.98471	104.13824	-508.54224	-238.61719	515.54871	-401.61591	-335.91595	518.26276	-372.43527	-179.22096	910.23657	-553.34094	-523.78925	1012.3917	-449.24045	-379.44974	779.06317	-96.2817	-484.19925	825.96051	-104.65596	-471.68991	415.76822	111.612	-571.5058	442.24167	94.987183
308	1.53	-330.9101	89.480133	-510.11215	-387.11029	102.33965	-509.41818	-240.37131	514.52301	-402.18289	-338.31165	517.21832	-374.82404	-179.51129	908.81726	-552.03162	-524.25214	1009.7048	-450.90509	-382.823	767.59741	-100.12736	-487.86328	814.37604	-108.6163	-477.6626	394.86057	87.94799	-577.87396	421.55377	71.398491
